<?xml version="1.0" standalone="no"?><!DOCTYPE svg PUBLIC "-//W3C//DTD SVG 1.1//EN" "http://www.w3.org/Graphics/SVG/1.1/DTD/svg11.dtd"><svg t="1536754280286" class="icon" style="" viewBox="0 0 1024 1024" version="1.1" xmlns="http://www.w3.org/2000/svg" p-id="2992" xmlns:xlink="http://www.w3.org/1999/xlink" width="64" height="64"><defs><style type="text/css"></style></defs><path d="M854.7 386L584.4 529.7c-25 13.1-40.2 39.3-40.2 68.5v277.7c0 29.8 29.8 49.5 54.8 35.8L869.3 768c24.4-13.1 40.2-39.3 40.2-68.5V422.4c0-30.4-29.8-49.5-54.8-36.4z" fill="#3FA9F5" p-id="2993" data-spm-anchor-id="a313x.7781069.0.i2" class=""></path><path d="M437.6 525L167.3 382c-25-13.1-54.8 6-54.8 35.8v278.9c0 29.2 15.2 55.4 40.2 68.5l270.3 143c25 13.1 54.8-6.6 54.8-36.4V593.5c-0.1-29.2-15.3-55.4-40.2-68.5z" fill="#337CEE" p-id="2994" data-spm-anchor-id="a313x.7781069.0.i1" class=""></path><path d="M832.9 325.3c12.8-6.6 18.9-17.9 17.7-28.6 1.2-11.3-4.9-22-17.7-28.6L557.7 127.4c-12.2-6.6-26.8-9.5-41.4-9.5-14.6 0-29.2 3-41.4 9.5l-275.2 140c-12.8 6.6-18.3 17.9-17.7 28.6-0.6 11.3 4.9 22.6 17.7 29.2l275.2 140c12.2 6.6 26.8 9.5 41.4 9.5s29.2-3 41.4-9.5c0 0.1 275.2-139.9 275.2-139.9z" fill="#3FA9F5" p-id="2995" data-spm-anchor-id="a313x.7781069.0.i0" class=""></path></svg>